<?xml version="1.0" standalone="no"?>
<!DOCTYPE svg PUBLIC "-//W3C//DTD SVG 20010904//EN"
 "http://www.w3.org/TR/2001/REC-SVG-20010904/DTD/svg10.dtd">
<svg version="1.0" xmlns="http://www.w3.org/2000/svg"
 width="309.000000pt" height="179.000000pt" viewBox="0 0 309.000000 179.000000"
 preserveAspectRatio="xMidYMid meet">

<g transform="translate(0.000000,179.000000) scale(0.100000,-0.100000)"
fill="#000000" stroke="none">
<path d="M72 1707 c-19 -20 -22 -35 -22 -104 0 -103 15 -125 89 -133 77 -8 67
-25 -16 -28 l-73 -3 0 -39 0 -40 89 0 c117 0 135 13 135 94 0 71 -16 89 -87
96 l-52 5 -3 47 -3 47 73 3 73 3 0 35 0 35 -90 3 c-84 2 -92 1 -113 -21z"/>
<path d="M318 1622 c-2 -60 -2 -143 0 -186 l4 -77 36 3 37 3 3 53 3 52 40 0
c41 0 78 14 91 34 4 6 8 50 8 99 0 119 -8 127 -129 127 l-90 0 -3 -108z m150
-19 c-3 -46 -4 -48 -35 -51 l-33 -3 0 50 0 51 36 0 35 0 -3 -47z"/>
<path d="M603 1708 c-22 -24 -27 -76 -24 -275 l1 -73 40 0 40 0 0 55 0 55 35
0 35 0 0 -55 0 -55 35 0 35 0 0 64 c0 36 5 68 10 71 7 4 7 12 0 25 -5 10 -10
53 -10 94 0 102 -13 116 -108 116 -58 0 -72 -3 -89 -22z m127 -108 l0 -50 -35
0 -35 0 0 50 0 50 35 0 35 0 0 -50z"/>
<path d="M880 1712 c-20 -16 -23 -31 -29 -116 -3 -54 -3 -103 1 -109 4 -7 8
-29 8 -49 0 -59 26 -78 104 -78 80 0 116 23 116 76 0 33 -1 34 -40 34 -29 0
-40 -4 -40 -15 0 -10 -11 -15 -35 -15 l-35 0 0 105 0 105 35 0 c24 0 35 -5 35
-15 0 -11 11 -15 40 -15 39 0 40 1 40 34 0 52 -36 76 -115 76 -46 0 -69 -5
-85 -18z"/>
<path d="M1128 1618 c-1 -62 -2 -146 0 -185 l4 -73 109 0 109 0 0 40 0 39 -72
3 c-75 3 -97 20 -33 26 33 3 35 5 35 42 0 37 -1 39 -36 42 -36 3 -37 3 -38 51
l-1 47 73 0 72 0 0 40 0 40 -109 0 -109 0 -4 -112z"/>
<path d="M1412 1713 c-17 -15 -21 -31 -23 -93 -2 -105 -1 -108 21 -130 15 -15
33 -20 70 -20 38 0 50 -4 50 -15 0 -12 -14 -15 -70 -15 l-70 0 0 -40 0 -40 84
0 c69 0 88 4 110 21 22 18 26 28 26 74 0 46 -4 56 -26 74 -18 14 -41 21 -70
21 -38 0 -44 3 -50 24 -3 13 -4 35 -2 47 3 22 9 24 73 29 l70 5 3 38 3 37 -89
0 c-71 0 -94 -4 -110 -17z"/>
<path d="M1640 1690 c0 -39 1 -40 36 -40 l36 0 -2 -72 c-1 -40 -2 -106 -1
-145 l1 -73 40 0 40 0 1 73 c1 39 0 104 -1 144 l-2 72 34 3 c30 3 33 6 36 41
l3 37 -110 0 -111 0 0 -40z"/>
<path d="M1910 1710 c-17 -17 -20 -33 -20 -103 0 -46 -5 -88 -11 -94 -8 -8 -8
-13 0 -17 6 -4 11 -36 11 -72 l0 -64 34 0 35 0 3 53 c3 50 4 52 35 55 l32 3 3
-53 3 -53 37 -3 36 -3 4 77 c2 43 1 120 -2 171 -6 114 -14 122 -112 123 -55 0
-72 -4 -88 -20z m120 -110 l0 -50 -35 0 c-35 0 -35 0 -35 43 0 51 4 57 42 57
27 0 28 -2 28 -50z"/>
<path d="M2140 1690 c0 -39 1 -40 36 -40 l36 0 -2 -72 c-1 -40 -2 -106 -1
-145 l1 -73 40 0 40 0 1 73 c1 39 0 105 -1 145 l-2 72 36 0 c35 0 36 1 36 40
l0 40 -110 0 -110 0 0 -40z"/>
<path d="M2388 1622 c-2 -60 -2 -143 0 -185 l4 -77 38 0 38 0 4 77 c2 42 2
125 0 185 l-3 108 -39 0 -39 0 -3 -108z"/>
<path d="M2549 1711 c-21 -17 -25 -30 -29 -113 -7 -126 3 -198 31 -220 31 -26
138 -25 170 1 28 22 36 85 29 219 -4 83 -8 96 -29 113 -33 27 -139 27 -172 0z
m121 -166 l0 -105 -35 0 -35 0 0 105 0 105 35 0 35 0 0 -105z"/>
<path d="M2798 1622 c-2 -60 -2 -143 0 -185 l4 -77 38 0 39 0 3 83 3 82 34
-82 35 -83 37 0 37 0 4 77 c2 42 2 125 0 185 l-3 108 -39 0 -39 0 -3 -81 -3
-82 -33 82 -33 81 -39 0 -39 0 -3 -108z"/>
<path d="M1511 1149 l-34 -41 36 -35 35 -36 31 34 c17 19 31 39 31 45 0 5 -15
24 -32 42 l-33 31 -34 -40z"/>
<path d="M1396 1014 c-15 -19 -26 -36 -24 -37 2 -1 18 -15 35 -31 l33 -30 25
24 c32 31 32 40 -8 78 l-32 31 -29 -35z"/>
<path d="M1637 1012 l-36 -35 26 -34 26 -34 34 32 c18 18 33 37 33 42 0 5 -11
22 -24 37 l-23 28 -36 -36z"/>
<path d="M1517 887 l-26 -34 30 -29 30 -28 24 29 c13 17 24 33 25 36 0 3 -13
18 -28 33 l-29 27 -26 -34z"/>
<path d="M1290 873 l-21 -27 33 -28 c41 -34 44 -34 64 -3 16 24 16 27 -2 46
-35 39 -51 41 -74 12z"/>
<path d="M1742 870 c-32 -30 -32 -31 -15 -55 23 -32 33 -31 67 4 27 28 27 30
11 55 -10 14 -20 26 -24 26 -3 0 -21 -14 -39 -30z"/>
<path d="M1417 765 c-19 -26 -14 -49 17 -75 13 -10 19 -9 36 11 25 31 25 41
-3 67 -29 27 -28 27 -50 -3z"/>
<path d="M1628 763 l-27 -28 22 -28 22 -28 28 29 28 29 -23 27 -23 27 -27 -28z"/>
<path d="M1206 746 c-9 -14 -16 -29 -16 -33 0 -9 69 -58 74 -52 14 17 26 52
19 58 -4 3 -20 17 -34 29 l-26 23 -17 -25z"/>
<path d="M1839 743 c-19 -15 -35 -28 -37 -29 -5 -3 29 -54 37 -54 3 0 20 13
37 28 32 27 32 27 14 55 l-17 28 -34 -28z"/>
<path d="M1520 655 l-23 -24 25 -30 26 -30 25 27 26 27 -24 28 c-13 15 -26 27
-28 27 -2 0 -14 -11 -27 -25z"/>
<path d="M1333 648 c-22 -29 -21 -36 6 -62 l29 -28 17 26 c17 26 17 28 -5 51
-27 28 -34 30 -47 13z"/>
<path d="M1717 637 c-27 -22 -27 -22 -9 -49 l18 -27 32 25 c31 24 31 26 16 50
-20 29 -22 30 -57 1z"/>
<path d="M1428 546 c-16 -23 -16 -24 11 -50 l29 -28 15 23 c15 20 15 24 -4 51
-24 34 -29 34 -51 4z"/>
<path d="M1618 542 l-27 -27 20 -24 20 -24 24 23 c30 28 31 41 7 63 -17 16
-20 15 -44 -11z"/>
<path d="M1526 441 c-17 -18 -17 -21 0 -46 l17 -26 23 22 c21 20 22 25 11 43
-19 28 -31 30 -51 7z"/>
</g>
</svg>
